<svg width="37" height="34" viewBox="0 0 37 34" fill="none" xmlns="http://www.w3.org/2000/svg">
<path d="M2 29L5 32L2 29ZM6.5 20L8 26L6.5 20ZM8 26L14 27.5L8 26ZM8 26L3.5 30.5L8 26ZM26 3.5L11 18.5L11.75 22.25L15.5 23L30.5 8L32 2L26 3.5Z" stroke="#D7B1F6" stroke-width="3" stroke-linecap="round" stroke-linejoin="round"/>
<path d="M18.8333 20L21.8333 23L25.5833 22.25L26.3333 18.5L23.3333 15.5M35.3333 29L32.3333 32L35.3333 29ZM30.8333 20L29.3333 26L30.8333 20ZM29.3333 26L33.8333 30.5L29.3333 26ZM29.3333 26L26.3333 26.75L23.3333 27.5L29.3333 26ZM14.1666 15.3333L6.83325 8L5.33325 2L11.3333 3.5L18.6666 10.8333L14.1666 15.3333Z" stroke="#D7B1F6" stroke-width="3" stroke-linecap="round" stroke-linejoin="round"/>
</svg>
