<svg width="30" height="34" viewBox="0 0 30 34" fill="none" xmlns="http://www.w3.org/2000/svg">
<path d="M16.76 31.4459L19.3216 29.6543C22.5965 27.3617 25.1313 24.1634 26.6154 20.4515C28.0995 16.7395 28.4683 12.6752 27.6766 8.75674C27.6375 8.56365 27.5545 8.38214 27.434 8.22627C27.3135 8.0704 27.1588 7.94436 26.9818 7.85789L15.0006 2L3.02103 7.85789C2.84372 7.94417 2.68867 8.07014 2.5679 8.22602C2.44714 8.3819 2.3639 8.5635 2.32465 8.75674C1.53314 12.6754 1.90217 16.7398 3.38653 20.4517C4.87088 24.1637 7.40604 27.3619 10.6812 29.6543L13.2428 31.4459C13.7583 31.8066 14.3723 32 15.0014 32C15.6305 32 16.2445 31.8066 16.76 31.4459V31.4459Z" stroke="#D7B1F6" stroke-width="3" stroke-linecap="round" stroke-linejoin="round"/>
</svg>
