<svg width="34" height="34" viewBox="0 0 34 34" fill="none" xmlns="http://www.w3.org/2000/svg">
<path d="M23 3.5C23 3.10218 22.842 2.72064 22.5607 2.43934C22.2794 2.15804 21.8978 2 21.5 2H12.5C12.1022 2 11.7206 2.15804 11.4393 2.43934C11.158 2.72064 11 3.10218 11 3.5V11H3.5C3.10218 11 2.72064 11.158 2.43934 11.4393C2.15804 11.7206 2 12.1022 2 12.5V21.5C2 21.8978 2.15804 22.2794 2.43934 22.5607C2.72064 22.842 3.10218 23 3.5 23H11V30.5C11 30.8978 11.158 31.2794 11.4393 31.5607C11.7206 31.842 12.1022 32 12.5 32H21.5C21.8978 32 22.2794 31.842 22.5607 31.5607C22.842 31.2794 23 30.8978 23 30.5V23H30.5C30.8978 23 31.2794 22.842 31.5607 22.5607C31.842 22.2794 32 21.8978 32 21.5V12.5C32 12.1022 31.842 11.7206 31.5607 11.4393C31.2794 11.158 30.8978 11 30.5 11H23V3.5Z" stroke="#D7B1F6" stroke-width="3" stroke-linecap="round" stroke-linejoin="round"/>
</svg>
